<svg version="1.0" xmlns="http://www.w3.org/2000/svg" width="2400" height="2400" viewBox="137.8784 92.8784 64.2432 64.2432" color-interpolation-filters="sRGB"><g fill="#fff" class="icon-text-wrapper icon-svg-group iconsvg"><g fill="#000" class="iconsvg-imagesvg icon_container" transform="translate(138.5082 93.5082)"><path fill="none" class="image-rect" d="M0 0h62.9835v62.9835H0z"/><svg viewBox="0 0 60 53.9045" width="62.9835" height="62.9835" class="image-svg-svg bn" style="overflow:visible"><g mask="url(#a)"><svg viewBox="0 0 72.35 65" xmlns="http://www.w3.org/2000/svg" style="overflow:visible" width="60" height="53.9045" filter="url(#b)"><path d="M64.35 0a8 8 0 0 1 7.907 9.216l-7.538 49A8 8 0 0 1 56.812 65H8a8 8 0 0 1-7.907-9.216l7.538-49A8 8 0 0 1 15.538 0H64.35z"/><defs><filter id="b"><feColorMatrix values="0 0 0 0 0 0 0 0 0 0 0 0 0 0 0 0 0 0 1 0"/></filter></defs></svg><svg xmlns="http://www.w3.org/2000/svg" viewBox="0.0111 -0.0154 95.2717 100.0095" width="40" height="35.9363" x="10" y="8.9841" class="image-svg-icon"><path d="M84.85 58.33a10.42 10.42 0 0 1 9.23 15.28A50 50 0 1 1 94 26.22a10.44 10.44 0 0 1-9.14 15.45 10.27 10.27 0 0 1-9.09-5.34 29.18 29.18 0 1 0-.07 27.46 10.4 10.4 0 0 1 9.15-5.46z" fill="#fff"/><circle cx="50" cy="50" r="16.67" fill="#fff"/></svg></g><mask id="a"><svg viewBox="0 0 72.35 65" xmlns="http://www.w3.org/2000/svg" style="overflow:visible" width="60" height="53.9045" fill="#fff"><path d="M64.35 0a8 8 0 0 1 7.907 9.216l-7.538 49A8 8 0 0 1 56.812 65H8a8 8 0 0 1-7.907-9.216l7.538-49A8 8 0 0 1 15.538 0H64.35z"/></svg><svg xmlns="http://www.w3.org/2000/svg" viewBox="0.0111 -0.0154 95.2717 100.0095" width="40" height="35.9363" x="10" y="8.9841" class="image-svg-icon"><path d="M84.85 58.33a10.42 10.42 0 0 1 9.23 15.28A50 50 0 1 1 94 26.22a10.44 10.44 0 0 1-9.14 15.45 10.27 10.27 0 0 1-9.09-5.34 29.18 29.18 0 1 0-.07 27.46 10.4 10.4 0 0 1 9.15-5.46z"/><circle cx="50" cy="50" r="16.67"/></svg></mask></svg></g></g></svg>
