<svg xmlns="http://www.w3.org/2000/svg" viewBox="0 0 14 14" version="1.1" id="Database-Server-1--Streamline-Core.svg">
	<path d="M1.258866 0.518084C0.70742 0.6119260000000001 0.25249 1.000006 0.07694400000000001 1.52635C-0.0023520000000000004 1.7640980000000002 0.000042 1.6869859999999999 0.000014 3.9986660000000005C0 6.319152 -0.0024779999999999997 6.2414380000000005 0.079058 6.481244C0.126168 6.619802 0.21222600000000003 6.781488 0.303282 6.902518L0.376614 7 0.303282 7.097482C0.15953 7.288568 0.06267800000000001 7.5122040000000005 0.021546 7.7480899999999995C-0.010402 7.931293999999999 -0.010976000000000001 12.068406 0.020916 12.24965C0.12355 12.83282 0.5399660000000001 13.290536 1.113 13.450038L1.2530000000000001 13.489 7 13.489L12.747 13.489 12.859 13.457962C13.079416 13.396894000000001 13.230084 13.325214 13.398 13.201538C13.591634 13.058933999999999 13.775034000000002 12.827626 13.873468 12.601876C13.919304 12.496764 13.986 12.258596 13.986 12.200034C13.986 12.182226 13.9923 12.16376 14 12.159C14.00924 12.153288 14.014000000000001 11.413738 14.014000000000001 9.985836C14.014000000000001 8.79536 14.009492 7.825846 14.003976 7.831362C13.99846 7.836863999999999 13.985804 7.793128000000001 13.975836000000001 7.734146C13.939086 7.516516 13.837278 7.284312 13.696648 7.097384000000001L13.62326 6.999818 13.691594 6.909546C13.831832 6.724256 13.926486 6.515502 13.966372 6.303486C13.979042000000002 6.236118 13.994946 6.170066 14.001707999999999 6.156696C14.018032 6.124398 14.01792 1.8159260000000002 14.001596000000001 1.8260200000000002C13.994764 1.830234 13.984726 1.79753 13.97928 1.753346C13.966344000000001 1.6485 13.90039 1.444674 13.842304 1.33C13.649118 0.9487240000000001 13.314014 0.673092 12.894 0.550046L12.761000000000001 0.51107 7.042 0.509124C3.89655 0.508046 1.294146 0.5120920000000001 1.258866 0.518084M1.4110040000000001 1.51242C1.266902 1.536696 1.127532 1.641304 1.0544799999999999 1.780016L1.0150000000000001 1.855 1.011318 3.978506C1.007692 6.079542 1.007944 6.102810000000001 1.03593 6.177612C1.08612 6.311732 1.2250560000000001 6.438516 1.366624 6.479368C1.450232 6.503504 12.549768 6.503504 12.633376 6.479368C12.764402 6.441554 12.888162 6.3357280000000005 12.951246000000001 6.207586L12.985 6.139 12.985 4.0040000000000004L12.985 1.869 12.948866 1.7919720000000001C12.879692 1.6445239999999999 12.738152000000001 1.537984 12.576242 1.511468C12.476772 1.4951720000000002 1.507772 1.49611 1.4110040000000001 1.51242M0.006832 3.997C0.006818 5.1905 0.008484 5.680822 0.0105 5.086606000000001C0.012516000000000001 4.492376 0.012516000000000001 3.515876 0.0105 2.9166060000000003C0.008484 2.317322 0.006832 2.8035 0.006832 3.997M3.323082 3.010322C2.939832 3.079566 2.612428 3.389498 2.5248019999999998 3.766C2.49417 3.897628 2.498006 4.125240000000001 2.5331319999999997 4.260956C2.612442 4.567318 2.878386 4.850006 3.183166 4.951898C3.286136 4.9863100000000005 3.316376 4.98995 3.5 4.98995C3.683624 4.98995 3.713864 4.9863100000000005 3.8168339999999996 4.951898C4.1216420000000005 4.849992 4.387697999999999 4.567178 4.466812 4.260956C4.499684 4.133681999999999 4.5061100000000005 3.91279 4.480518 3.789506C4.40944 3.447108 4.14036 3.151386 3.802344 3.044188C3.6773800000000003 3.0045539999999997 3.4456240000000005 2.988174 3.323082 3.010322M7.357 3.519586C7.221578 3.562412 7.10227 3.666698 7.044618000000001 3.792656C7.001918 3.8858960000000002 6.98873 4.032112 7.0145040000000005 4.126318C7.054866 4.273906 7.177702 4.411442 7.320894000000001 4.469388L7.399 4.501 9.17 4.505158000000001C10.322368 4.50786 10.978842 4.504304 11.049332000000001 4.49498C11.110778 4.486846 11.186784000000001 4.4658880000000005 11.224962 4.446540000000001C11.345768000000001 4.385318000000001 11.455598 4.249476 11.485964000000001 4.1237C11.505368 4.043368 11.496128 3.898762 11.46656 3.819718C11.415894000000002 3.684282 11.277518 3.557652 11.135376 3.516632C11.049290000000001 3.491782 7.435974 3.49461 7.357 3.519586M1.357608 7.522970000000001C1.216418 7.568792000000001 1.0852240000000002 7.690662 1.036294 7.821436C1.007832 7.897498 1.0076640000000001 7.911834 1.011318 10.021494L1.0150000000000001 12.145 1.0544799999999999 12.219984C1.130542 12.364408000000001 1.2656 12.462632 1.423758 12.488532000000001C1.533938 12.506578000000001 12.466062 12.506578000000001 12.576242 12.488532000000001C12.738152000000001 12.462016 12.879692 12.355476 12.948866 12.208027999999999L12.985 12.131 12.98864 10.014382C12.992224 7.921368 12.991958 7.896924 12.964027999999999 7.8222760000000005C12.913879999999999 7.688268000000001 12.774902 7.561470000000001 12.633376 7.520632C12.551672 7.497056000000001 1.430352 7.499352 1.357608 7.522970000000001M0.006832 10.003C0.006818 11.1965 0.008484 11.686822000000001 0.0105 11.092606C0.012516000000000001 10.498376 0.012516000000000001 9.521876 0.0105 8.922606C0.008484 8.323322000000001 0.006832 8.8095 0.006832 10.003M3.251374 9.02937C3.0478560000000003 9.084292000000001 2.914716 9.165856 2.7639500000000004 9.327962000000001C2.585212 9.520126000000001 2.505104 9.726108 2.504152 9.996C2.503326 10.225656 2.547146 10.375722000000001 2.66819 10.557792000000001C2.7806800000000003 10.726996000000002 2.966768 10.87345 3.157014 10.942511999999999C3.430798 11.041884 3.7661119999999997 11.010440000000001 4.012344000000001 10.862278C4.245234 10.722152000000001 4.42659 10.470306 4.480056 10.212762C4.505564000000001 10.089828 4.499264 9.865128 4.466755999999999 9.739044C4.387697999999999 9.43243 4.11957 9.147768000000001 3.8168339999999996 9.04904C3.6597120000000003 8.997814 3.4016080000000004 8.988826 3.251374 9.02937M7.426230000000001 9.505887999999999C7.279678 9.527406000000001 7.158984 9.607276 7.076986000000001 9.737C7.016534 9.832634 6.994834 9.920442 7.003108 10.035998C7.015931999999999 10.215352000000001 7.129542 10.379726 7.293972000000001 10.456866L7.371 10.493 9.219 10.497003999999999C10.627763999999999 10.500070000000001 11.081980000000001 10.497003999999999 11.13 10.484138C11.341736000000001 10.427410000000002 11.494952 10.228918 11.495638 10.010462C11.495988 9.899974 11.48658 9.856182 11.444215999999999 9.771355999999999C11.373908 9.6306 11.230044 9.530304 11.06399 9.506294C10.952760000000001 9.490207999999999 7.535584 9.489830000000001 7.426230000000001 9.505887999999999" stroke="none" fill="#000" fill-rule="evenodd"></path>
</svg>